M48
METRIC,TZ
T1C0.400
T2C0.701
T3C0.800
T4C0.800
T5C1.001
T6C1.016
T7C1.400
T8C1.400
%
G90
G05
T1
X45403Y-33211
X48641Y-34735
X57658Y-69596
X61976Y-41212
X68580Y-52705
T2
X46485Y-67565
X46485Y-77725
T3
X32512Y-36068
X33909Y-43053
X33909Y-45553
X36322Y-36068
X45720Y-40005
X45720Y-42545
X45720Y-45085
X45720Y-47625
X45720Y-50165
X45720Y-52705
X45720Y-55245
X45720Y-57785
X45720Y-60325
X45720Y-62865
X52070Y-72390
X52070Y-74930
X52070Y-77470
X52070Y-80010
X53340Y-40005
X53340Y-42545
X53340Y-45085
X53340Y-47625
X53340Y-50165
X53340Y-52705
X53340Y-55245
X53340Y-57785
X53340Y-60325
X53340Y-62865
X59690Y-72390
X59690Y-74930
X59690Y-77470
X59690Y-80010
X66421Y-36195
X66421Y-38735
X66421Y-41275
X66421Y-43815
X66421Y-46355
X66421Y-48895
X66421Y-51435
X66421Y-53975
X66421Y-60960
X66421Y-63500
X66421Y-66040
X66421Y-68580
X66421Y-71120
X66421Y-73660
X66421Y-76200
X66421Y-78740
X74041Y-36195
X74041Y-38735
X74041Y-41275
X74041Y-43815
X74041Y-46355
X74041Y-48895
X74041Y-51435
X74041Y-53975
X74041Y-60960
X74041Y-63500
X74041Y-66040
X74041Y-68580
X74041Y-71120
X74041Y-73660
X74041Y-76200
X74041Y-78740
T4
X32512Y-38568
X36322Y-38568
T5
X38862Y-81026
X43180Y-34925
X49022Y-81026
X49784Y-67818
X53340Y-34925
X59944Y-67818
X62992Y-69659
X62992Y-79819
T6
X28829Y-36195
X28829Y-38735
X41339Y-45276
X41339Y-47815
X41339Y-50356
X41339Y-52895
X41339Y-55436
X41339Y-57976
X41339Y-60515
X57785Y-34290
X57785Y-36830
X57785Y-39370
X59055Y-43180
X59055Y-45720
X59055Y-48260
X59055Y-50800
X59055Y-53340
X59055Y-55880
X60325Y-34290
X60325Y-36830
X60325Y-39370
X79375Y-38100
X79375Y-40640
X79375Y-43180
X79375Y-45720
X79375Y-48260
X79375Y-50800
X79375Y-53340
X79375Y-55880
X79375Y-58420
X79375Y-60960
X79375Y-63500
X79375Y-66040
X79375Y-68580
X79375Y-71120
X79375Y-73660
X79375Y-76200
X81915Y-38100
X81915Y-40640
X81915Y-43180
X81915Y-45720
X81915Y-48260
X81915Y-50800
X81915Y-53340
X81915Y-55880
X81915Y-58420
X81915Y-60960
X81915Y-63500
X81915Y-66040
X81915Y-68580
X81915Y-71120
X81915Y-73660
X81915Y-76200
T7
X36830Y-66128
X36830Y-77128
X40719Y-67739
X40719Y-75517
X42330Y-71628
T8
X32330Y-71628
T0
M30
