G04 #@! TF.FileFunction,Copper,L1,Top,Signal*
%FSLAX46Y46*%
G04 Gerber Fmt 4.6, Leading zero omitted, Abs format (unit mm)*
G04 Created by KiCad (PCBNEW 4.0.1-stable) date Monday, January 11, 2016 'pmt' 06:27:43 pm*
%MOMM*%
G01*
G04 APERTURE LIST*
%ADD10C,0.100000*%
%ADD11R,1.300000X1.300000*%
%ADD12C,1.300000*%
%ADD13C,1.699260*%
%ADD14R,1.699260X1.699260*%
%ADD15O,2.300000X1.600000*%
%ADD16C,1.900000*%
%ADD17R,1.727200X1.727200*%
%ADD18O,1.727200X1.727200*%
%ADD19R,2.032000X1.727200*%
%ADD20O,2.032000X1.727200*%
%ADD21R,2.032000X2.032000*%
%ADD22O,2.032000X2.032000*%
%ADD23C,1.998980*%
%ADD24C,0.600000*%
%ADD25C,0.250000*%
G04 APERTURE END LIST*
D10*
D11*
X36322000Y-36068000D03*
D12*
X36322000Y-38568000D03*
D11*
X32512000Y-36068000D03*
D12*
X32512000Y-38568000D03*
D13*
X46484540Y-77724520D03*
D14*
X46484540Y-67564520D03*
D15*
X45720000Y-40005000D03*
X45720000Y-42545000D03*
X45720000Y-45085000D03*
X45720000Y-47625000D03*
X45720000Y-50165000D03*
X45720000Y-52705000D03*
X45720000Y-55245000D03*
X45720000Y-57785000D03*
X45720000Y-60325000D03*
X45720000Y-62865000D03*
X53340000Y-62865000D03*
X53340000Y-60325000D03*
X53340000Y-57785000D03*
X53340000Y-55245000D03*
X53340000Y-52705000D03*
X53340000Y-50165000D03*
X53340000Y-47625000D03*
X53340000Y-45085000D03*
X53340000Y-42545000D03*
X53340000Y-40005000D03*
D16*
X42330000Y-71628000D03*
X40719087Y-67738913D03*
X40719087Y-75517087D03*
X36830000Y-66128000D03*
X32330000Y-71628000D03*
X36830000Y-77128000D03*
D17*
X57785000Y-34290000D03*
D18*
X60325000Y-34290000D03*
X57785000Y-36830000D03*
X60325000Y-36830000D03*
X57785000Y-39370000D03*
X60325000Y-39370000D03*
D19*
X41338500Y-45275500D03*
D20*
X41338500Y-47815500D03*
X41338500Y-50355500D03*
X41338500Y-52895500D03*
X41338500Y-55435500D03*
X41338500Y-57975500D03*
X41338500Y-60515500D03*
D19*
X59055000Y-55880000D03*
D20*
X59055000Y-53340000D03*
X59055000Y-50800000D03*
X59055000Y-48260000D03*
X59055000Y-45720000D03*
X59055000Y-43180000D03*
D21*
X28829000Y-38735000D03*
D22*
X28829000Y-36195000D03*
D17*
X79375000Y-76200000D03*
D18*
X81915000Y-76200000D03*
X79375000Y-73660000D03*
X81915000Y-73660000D03*
X79375000Y-71120000D03*
X81915000Y-71120000D03*
X79375000Y-68580000D03*
X81915000Y-68580000D03*
X79375000Y-66040000D03*
X81915000Y-66040000D03*
X79375000Y-63500000D03*
X81915000Y-63500000D03*
X79375000Y-60960000D03*
X81915000Y-60960000D03*
X79375000Y-58420000D03*
X81915000Y-58420000D03*
X79375000Y-55880000D03*
X81915000Y-55880000D03*
X79375000Y-53340000D03*
X81915000Y-53340000D03*
X79375000Y-50800000D03*
X81915000Y-50800000D03*
X79375000Y-48260000D03*
X81915000Y-48260000D03*
X79375000Y-45720000D03*
X81915000Y-45720000D03*
X79375000Y-43180000D03*
X81915000Y-43180000D03*
X79375000Y-40640000D03*
X81915000Y-40640000D03*
X79375000Y-38100000D03*
X81915000Y-38100000D03*
D23*
X53340000Y-34925000D03*
X43180000Y-34925000D03*
X49022000Y-81026000D03*
X38862000Y-81026000D03*
X62992000Y-69659500D03*
X62992000Y-79819500D03*
X59944000Y-67818000D03*
X49784000Y-67818000D03*
D15*
X52070000Y-72390000D03*
X52070000Y-74930000D03*
X52070000Y-77470000D03*
X52070000Y-80010000D03*
X59690000Y-80010000D03*
X59690000Y-77470000D03*
X59690000Y-74930000D03*
X59690000Y-72390000D03*
X74041000Y-78740000D03*
X74041000Y-76200000D03*
X74041000Y-73660000D03*
X74041000Y-71120000D03*
X74041000Y-68580000D03*
X74041000Y-66040000D03*
X74041000Y-63500000D03*
X74041000Y-60960000D03*
X66421000Y-60960000D03*
X66421000Y-63500000D03*
X66421000Y-66040000D03*
X66421000Y-68580000D03*
X66421000Y-71120000D03*
X66421000Y-73660000D03*
X66421000Y-76200000D03*
X66421000Y-78740000D03*
X74041000Y-53975000D03*
X74041000Y-51435000D03*
X74041000Y-48895000D03*
X74041000Y-46355000D03*
X74041000Y-43815000D03*
X74041000Y-41275000D03*
X74041000Y-38735000D03*
X74041000Y-36195000D03*
X66421000Y-36195000D03*
X66421000Y-38735000D03*
X66421000Y-41275000D03*
X66421000Y-43815000D03*
X66421000Y-46355000D03*
X66421000Y-48895000D03*
X66421000Y-51435000D03*
X66421000Y-53975000D03*
D11*
X33909000Y-43053000D03*
D12*
X33909000Y-45553000D03*
D24*
X61976000Y-41211500D03*
X48641000Y-34734500D03*
X45402500Y-33210500D03*
X57658000Y-69596000D03*
X68580000Y-52705000D03*
D25*
X53340000Y-40005000D02*
X55372000Y-40005000D01*
X56578500Y-41211500D02*
X61976000Y-41211500D01*
X55372000Y-40005000D02*
X56578500Y-41211500D01*
X36322000Y-36068000D02*
X36322000Y-34544000D01*
X48831500Y-34925000D02*
X53340000Y-34925000D01*
X48641000Y-34734500D02*
X48831500Y-34925000D01*
X37655500Y-33210500D02*
X45402500Y-33210500D01*
X36322000Y-34544000D02*
X37655500Y-33210500D01*
X60325000Y-34290000D02*
X61785500Y-34290000D01*
X64897000Y-38735000D02*
X66421000Y-38735000D01*
X63944500Y-37782500D02*
X64897000Y-38735000D01*
X63944500Y-36449000D02*
X63944500Y-37782500D01*
X61785500Y-34290000D02*
X63944500Y-36449000D01*
X33909000Y-43053000D02*
X36258500Y-43053000D01*
X38417500Y-36068000D02*
X36322000Y-36068000D01*
X39433500Y-37084000D02*
X38417500Y-36068000D01*
X39433500Y-39878000D02*
X39433500Y-37084000D01*
X36258500Y-43053000D02*
X39433500Y-39878000D01*
X32512000Y-36068000D02*
X36322000Y-36068000D01*
X28829000Y-36195000D02*
X32385000Y-36195000D01*
X32385000Y-36195000D02*
X32512000Y-36068000D01*
X53340000Y-34925000D02*
X53340000Y-40005000D01*
X59690000Y-72390000D02*
X59690000Y-68072000D01*
X59690000Y-68072000D02*
X59944000Y-67818000D01*
X32512000Y-38568000D02*
X32512000Y-40513000D01*
X32408500Y-45553000D02*
X33909000Y-45553000D01*
X31305500Y-44450000D02*
X32408500Y-45553000D01*
X31305500Y-41719500D02*
X31305500Y-44450000D01*
X32512000Y-40513000D02*
X31305500Y-41719500D01*
X32512000Y-38568000D02*
X36322000Y-38568000D01*
X28829000Y-38735000D02*
X32345000Y-38735000D01*
X32345000Y-38735000D02*
X32512000Y-38568000D01*
X46484540Y-77724520D02*
X51815480Y-77724520D01*
X51815480Y-77724520D02*
X52070000Y-77470000D01*
X46484540Y-70868540D02*
X46484540Y-77724520D01*
X40719087Y-67738913D02*
X43354913Y-67738913D01*
X43354913Y-67738913D02*
X46484540Y-70868540D01*
X46484540Y-67564520D02*
X46484540Y-68836540D01*
X50038000Y-74930000D02*
X52070000Y-74930000D01*
X48768000Y-73660000D02*
X50038000Y-74930000D01*
X48768000Y-71120000D02*
X48768000Y-73660000D01*
X46484540Y-68836540D02*
X48768000Y-71120000D01*
X49022000Y-81026000D02*
X50038000Y-82042000D01*
X53975000Y-74930000D02*
X52070000Y-74930000D01*
X55499000Y-76454000D02*
X53975000Y-74930000D01*
X55499000Y-80264000D02*
X55499000Y-76454000D01*
X53721000Y-82042000D02*
X55499000Y-80264000D01*
X50038000Y-82042000D02*
X53721000Y-82042000D01*
X43180000Y-34925000D02*
X45720000Y-34925000D01*
X56324500Y-39370000D02*
X57785000Y-39370000D01*
X55435500Y-38481000D02*
X56324500Y-39370000D01*
X55435500Y-34290000D02*
X55435500Y-38481000D01*
X54356000Y-33210500D02*
X55435500Y-34290000D01*
X47434500Y-33210500D02*
X54356000Y-33210500D01*
X45720000Y-34925000D02*
X47434500Y-33210500D01*
X43180000Y-34925000D02*
X43180000Y-37465000D01*
X43180000Y-37465000D02*
X45720000Y-40005000D01*
X45720000Y-42545000D02*
X46863000Y-42545000D01*
X46863000Y-42545000D02*
X47879000Y-43561000D01*
X47879000Y-43561000D02*
X47879000Y-63944500D01*
X47879000Y-63944500D02*
X49784000Y-65849500D01*
X49784000Y-65849500D02*
X49784000Y-67818000D01*
X49784000Y-67818000D02*
X52451000Y-67818000D01*
X57785000Y-77470000D02*
X59690000Y-77470000D01*
X56642000Y-76327000D02*
X57785000Y-77470000D01*
X56642000Y-72009000D02*
X56642000Y-76327000D01*
X52451000Y-67818000D02*
X56642000Y-72009000D01*
X45720000Y-45085000D02*
X41529000Y-45085000D01*
X41529000Y-45085000D02*
X41338500Y-45275500D01*
X45720000Y-47625000D02*
X41529000Y-47625000D01*
X41529000Y-47625000D02*
X41338500Y-47815500D01*
X45720000Y-50165000D02*
X41529000Y-50165000D01*
X41529000Y-50165000D02*
X41338500Y-50355500D01*
X45720000Y-52705000D02*
X41529000Y-52705000D01*
X41529000Y-52705000D02*
X41338500Y-52895500D01*
X45720000Y-55245000D02*
X41529000Y-55245000D01*
X41529000Y-55245000D02*
X41338500Y-55435500D01*
X45720000Y-57785000D02*
X41529000Y-57785000D01*
X41529000Y-57785000D02*
X41338500Y-57975500D01*
X45720000Y-60325000D02*
X41529000Y-60325000D01*
X41529000Y-60325000D02*
X41338500Y-60515500D01*
X53340000Y-62865000D02*
X53340000Y-65278000D01*
X53340000Y-65278000D02*
X57658000Y-69596000D01*
X66421000Y-68580000D02*
X69215000Y-68580000D01*
X69850000Y-53975000D02*
X68580000Y-52705000D01*
X69850000Y-67945000D02*
X69850000Y-53975000D01*
X69215000Y-68580000D02*
X69850000Y-67945000D01*
X53340000Y-60325000D02*
X56515000Y-60325000D01*
X64770000Y-68580000D02*
X66421000Y-68580000D01*
X56515000Y-60325000D02*
X64770000Y-68580000D01*
X59690000Y-61595000D02*
X61595000Y-59690000D01*
X64135000Y-42545000D02*
X65405000Y-41275000D01*
X64135000Y-46990000D02*
X64135000Y-42545000D01*
X61595000Y-49530000D02*
X64135000Y-46990000D01*
X61595000Y-59690000D02*
X61595000Y-49530000D01*
X65405000Y-41275000D02*
X66421000Y-41275000D01*
X53340000Y-57785000D02*
X55880000Y-57785000D01*
X64135000Y-66040000D02*
X66421000Y-66040000D01*
X55880000Y-57785000D02*
X59690000Y-61595000D01*
X59690000Y-61595000D02*
X64135000Y-66040000D01*
X53340000Y-55245000D02*
X58420000Y-55245000D01*
X58420000Y-55245000D02*
X59055000Y-55880000D01*
X53340000Y-52705000D02*
X58420000Y-52705000D01*
X58420000Y-52705000D02*
X59055000Y-53340000D01*
X53340000Y-50165000D02*
X58420000Y-50165000D01*
X58420000Y-50165000D02*
X59055000Y-50800000D01*
X59055000Y-48260000D02*
X61087000Y-48260000D01*
X61404500Y-36830000D02*
X60325000Y-36830000D01*
X63119000Y-38544500D02*
X61404500Y-36830000D01*
X63119000Y-46228000D02*
X63119000Y-38544500D01*
X61087000Y-48260000D02*
X63119000Y-46228000D01*
X53340000Y-47625000D02*
X58420000Y-47625000D01*
X58420000Y-47625000D02*
X59055000Y-48260000D01*
X53340000Y-45085000D02*
X58420000Y-45085000D01*
X58420000Y-45085000D02*
X59055000Y-45720000D01*
X53340000Y-42545000D02*
X58420000Y-42545000D01*
X58420000Y-42545000D02*
X59055000Y-43180000D01*
X38862000Y-81026000D02*
X38862000Y-80645000D01*
X38862000Y-80645000D02*
X40719087Y-78787913D01*
X40719087Y-78787913D02*
X40719087Y-75517087D01*
X74041000Y-78740000D02*
X76835000Y-78740000D01*
X76835000Y-78740000D02*
X79375000Y-76200000D01*
X74041000Y-76200000D02*
X76835000Y-76200000D01*
X76835000Y-76200000D02*
X79375000Y-73660000D01*
X74041000Y-73660000D02*
X76835000Y-73660000D01*
X76835000Y-73660000D02*
X79375000Y-71120000D01*
X74041000Y-71120000D02*
X76835000Y-71120000D01*
X76835000Y-71120000D02*
X79375000Y-68580000D01*
X74041000Y-68580000D02*
X76835000Y-68580000D01*
X76835000Y-68580000D02*
X79375000Y-66040000D01*
X74041000Y-66040000D02*
X76835000Y-66040000D01*
X76835000Y-66040000D02*
X79375000Y-63500000D01*
X74041000Y-63500000D02*
X76835000Y-63500000D01*
X76835000Y-63500000D02*
X79375000Y-60960000D01*
X66421000Y-76200000D02*
X69532500Y-76200000D01*
X73850500Y-58420000D02*
X79375000Y-58420000D01*
X71882000Y-60388500D02*
X73850500Y-58420000D01*
X71882000Y-73850500D02*
X71882000Y-60388500D01*
X69532500Y-76200000D02*
X71882000Y-73850500D01*
X74041000Y-53975000D02*
X75692000Y-53975000D01*
X77597000Y-55880000D02*
X79375000Y-55880000D01*
X75692000Y-53975000D02*
X77597000Y-55880000D01*
X74041000Y-51435000D02*
X75565000Y-51435000D01*
X77470000Y-53340000D02*
X79375000Y-53340000D01*
X75565000Y-51435000D02*
X77470000Y-53340000D01*
X74041000Y-48895000D02*
X75819000Y-48895000D01*
X77724000Y-50800000D02*
X79375000Y-50800000D01*
X75819000Y-48895000D02*
X77724000Y-50800000D01*
X74041000Y-46355000D02*
X75946000Y-46355000D01*
X77851000Y-48260000D02*
X79375000Y-48260000D01*
X75946000Y-46355000D02*
X77851000Y-48260000D01*
X74041000Y-43815000D02*
X75692000Y-43815000D01*
X77597000Y-45720000D02*
X79375000Y-45720000D01*
X75692000Y-43815000D02*
X77597000Y-45720000D01*
X74041000Y-41275000D02*
X75692000Y-41275000D01*
X77597000Y-43180000D02*
X79375000Y-43180000D01*
X75692000Y-41275000D02*
X77597000Y-43180000D01*
X74041000Y-38735000D02*
X75692000Y-38735000D01*
X77597000Y-40640000D02*
X79375000Y-40640000D01*
X75692000Y-38735000D02*
X77597000Y-40640000D01*
X66421000Y-51435000D02*
X70612000Y-51435000D01*
X79375000Y-35052000D02*
X79375000Y-38100000D01*
X78105000Y-33782000D02*
X79375000Y-35052000D01*
X73660000Y-33782000D02*
X78105000Y-33782000D01*
X72072500Y-35369500D02*
X73660000Y-33782000D01*
X72072500Y-49974500D02*
X72072500Y-35369500D01*
X70612000Y-51435000D02*
X72072500Y-49974500D01*
X59690000Y-74930000D02*
X60706000Y-74930000D01*
X60706000Y-74930000D02*
X62992000Y-72644000D01*
X62992000Y-72644000D02*
X62992000Y-69659500D01*
X66421000Y-60960000D02*
X65151000Y-60960000D01*
X64897000Y-48895000D02*
X66421000Y-48895000D01*
X63690500Y-50101500D02*
X64897000Y-48895000D01*
X63690500Y-59499500D02*
X63690500Y-50101500D01*
X65151000Y-60960000D02*
X63690500Y-59499500D01*
M02*
